<svg xmlns="http://www.w3.org/2000/svg" viewBox="0 0 512 512" xml:space="preserve"><path style="fill:#a04c33" d="M438.747 54.99c.563.423.905 1.077.905 1.782v377.315c0 12.295-9.966 22.261-22.261 22.261H94.61c-6.147 0-11.13-4.983-11.13-11.13V23.976C83.478 10.734 93.444 0 105.739 0h327.742c2.008 0 2.982 2.442 1.532 3.83-6.718 6.43-10.803 14.831-10.803 23.996 0 10.757 5.628 20.463 14.537 27.164"/><path style="fill:#db6d53" d="M183.313 411.826V512l-33.22-19.915L116.87 512V411.826z"/><path style="fill:#501919" d="M428.522 55.652v378.435c0 12.295-9.966 22.261-22.261 22.261H83.479c-6.147 0-11.13-4.983-11.13-11.13V33.391h341.255c1.635 8.856 7.092 16.689 14.918 22.261"/><path style="fill:#92462d" d="M105.739 0h11.13v456.348h-33.39c-6.147 0-11.13-4.983-11.13-11.13V23.976C72.348 10.734 82.314 0 94.609 0z"/><path style="fill:#a09982" d="M116.87 55.652c-12.295 0-22.261-9.966-22.261-22.261v-9.415C94.609 10.734 104.575 0 116.87 0h305.481c2.008 0 2.982 2.442 1.532 3.83-6.718 6.43-10.803 14.831-10.803 23.996 0 11.116 6.01 21.111 15.442 27.826z"/><path style="fill:#c1b69a" d="M128 55.652c-12.295 0-22.261-9.966-22.261-22.261v-9.415C105.739 10.734 115.705 0 128 0h294.351c2.008 0 2.982 2.442 1.532 3.83-6.718 6.43-10.803 14.831-10.803 23.996 0 11.116 6.01 21.111 15.442 27.826z"/><path style="fill:#aca38b" d="M413.079 27.826c0 1.892.187 3.749.523 5.565H166.957a5.566 5.566 0 0 1 0-11.13h246.642a30.6 30.6 0 0 0-.52 5.565"/><path style="fill:#ceb896" d="M363.403 194.223c0 17.568-14.291 31.861-31.859 31.861h-82.553c-5.293 0-9.6 4.306-9.6 9.6v20.729c0 6.147-4.983 11.13-11.13 11.13s-11.13-4.983-11.13-11.13v-20.729c0-17.568 14.293-31.861 31.861-31.861h82.553c5.293 0 9.598-4.306 9.598-9.6s-4.305-9.6-9.598-9.6H185.71c-17.567 0-31.86-14.293-31.86-31.86s14.291-31.86 31.86-31.86h90.543c5.293 0 9.6-4.306 9.6-9.599 0-6.147 4.983-11.13 11.13-11.13s11.13 4.983 11.13 11.13c0 17.567-14.293 31.86-31.861 31.86H185.71c-5.293 0-9.599 4.306-9.599 9.599s4.306 9.599 9.599 9.599h145.834c17.567 0 31.859 14.292 31.859 31.861"/><path style="fill:#98642e" d="M384 390.368c0 6.147-4.983 11.13-11.13 11.13h-24.881l-.065.003-.065-.003H190.737l-.065.003c-.033.002-.042-.003-.065-.003h-24.88c-6.147 0-11.13-4.983-11.13-11.13s4.983-11.13 11.13-11.13h13.814v-6.563c0-45.72 34.371-83.539 78.625-89.041v-12.218c0-6.147 4.983-11.13 11.13-11.13s11.13 4.983 11.13 11.13v12.218c44.256 5.503 78.627 43.321 78.627 89.04v6.563h13.815c6.149 0 11.132 4.983 11.132 11.131"/><path style="fill:#d19b3f" d="M338.242 315.28c-16.477 19.759-41.265 32.359-68.945 32.359s-52.466-12.601-68.943-32.359c16.477-19.759 41.264-32.359 68.943-32.359 27.68-.001 52.466 12.6 68.945 32.359M384 390.368c0 6.147-4.983 11.13-11.13 11.13H165.728c-6.147 0-11.13-4.983-11.13-11.13s4.983-11.13 11.13-11.13H372.87c6.147-.001 11.13 4.982 11.13 11.13"/></svg>